G04 #@! TF.GenerationSoftware,KiCad,Pcbnew,5.1.4-5.1.4*
G04 #@! TF.CreationDate,2019-11-01T09:42:33+01:00*
G04 #@! TF.ProjectId,Linear-Netzteil,4c696e65-6172-42d4-9e65-747a7465696c,rev?*
G04 #@! TF.SameCoordinates,Original*
G04 #@! TF.FileFunction,Copper,L1,Top*
G04 #@! TF.FilePolarity,Positive*
%FSLAX46Y46*%
G04 Gerber Fmt 4.6, Leading zero omitted, Abs format (unit mm)*
G04 Created by KiCad (PCBNEW 5.1.4-5.1.4) date 2019-11-01 09:42:33*
%MOMM*%
%LPD*%
G04 APERTURE LIST*
%ADD10C,2.400000*%
%ADD11R,2.400000X2.400000*%
%ADD12C,2.000000*%
%ADD13R,2.000000X2.000000*%
%ADD14O,2.000000X2.000000*%
%ADD15O,2.200000X2.200000*%
%ADD16R,2.200000X2.200000*%
%ADD17C,2.200000*%
%ADD18C,3.000000*%
%ADD19O,2.000000X3.600000*%
%ADD20R,2.000000X3.600000*%
%ADD21O,1.800000X1.800000*%
%ADD22R,1.800000X1.800000*%
%ADD23C,4.000000*%
%ADD24C,2.000000*%
%ADD25C,0.254000*%
G04 APERTURE END LIST*
D10*
X120770000Y-121920000D03*
D11*
X128270000Y-121920000D03*
X107950000Y-121920000D03*
D10*
X100450000Y-121920000D03*
D12*
X146130000Y-133350000D03*
D13*
X151130000Y-133350000D03*
X87630000Y-133350000D03*
D12*
X82630000Y-133350000D03*
D13*
X116840000Y-86360000D03*
D14*
X111760000Y-91440000D03*
X111760000Y-86360000D03*
X116840000Y-91440000D03*
D15*
X153670000Y-91440000D03*
D16*
X143510000Y-91440000D03*
X80010000Y-91440000D03*
D15*
X90170000Y-91440000D03*
D17*
X145970000Y-69930000D03*
X145970000Y-79930000D03*
X135970000Y-79930000D03*
X135970000Y-69930000D03*
D18*
X140970000Y-80010000D03*
X140970000Y-69850000D03*
X86360000Y-80010000D03*
X86360000Y-69850000D03*
D17*
X91360000Y-79930000D03*
X91360000Y-69930000D03*
X81360000Y-69930000D03*
X81360000Y-79930000D03*
D19*
X121680000Y-71120000D03*
X114180000Y-71120000D03*
D20*
X106680000Y-71120000D03*
X121920000Y-158750000D03*
D19*
X114420000Y-158750000D03*
X106920000Y-158750000D03*
X106920000Y-109220000D03*
X114420000Y-109220000D03*
D20*
X121920000Y-109220000D03*
D21*
X151130000Y-118110000D03*
X148590000Y-118110000D03*
D22*
X146050000Y-118110000D03*
X87630000Y-102870000D03*
D21*
X85090000Y-102870000D03*
X82550000Y-102870000D03*
D23*
X68580000Y-69850000D03*
X158750000Y-69850000D03*
X158750000Y-160020000D03*
X68580000Y-160020000D03*
D24*
X148590000Y-130890000D02*
X146130000Y-133350000D01*
X148590000Y-118110000D02*
X148590000Y-130890000D01*
X151130000Y-133350000D02*
X151130000Y-118110000D01*
X86360000Y-80010000D02*
X88900000Y-77470000D01*
X102870000Y-77470000D02*
X111760000Y-86360000D01*
X88900000Y-77470000D02*
X102870000Y-77470000D01*
X119380000Y-91440000D02*
X116840000Y-91440000D01*
X135890000Y-74930000D02*
X128270000Y-74930000D01*
X140970000Y-80010000D02*
X135890000Y-74930000D01*
X128270000Y-74930000D02*
X124460000Y-78740000D01*
X124460000Y-86360000D02*
X119380000Y-91440000D01*
X124460000Y-78740000D02*
X124460000Y-86360000D01*
X128170001Y-67629999D02*
X124680000Y-71120000D01*
X138749999Y-67629999D02*
X128170001Y-67629999D01*
X124680000Y-71120000D02*
X121680000Y-71120000D01*
X140970000Y-69850000D02*
X138749999Y-67629999D01*
X87859999Y-68350001D02*
X86360000Y-69850000D01*
X88580001Y-67629999D02*
X87859999Y-68350001D01*
X103680000Y-71120000D02*
X100189999Y-67629999D01*
X100189999Y-67629999D02*
X88580001Y-67629999D01*
X106680000Y-71120000D02*
X103680000Y-71120000D01*
D25*
G36*
X162433000Y-163703000D02*
G01*
X113157000Y-163703000D01*
X113157000Y-160590941D01*
X113353683Y-160795922D01*
X113617239Y-160980010D01*
X113911645Y-161109144D01*
X114039566Y-161140124D01*
X114293000Y-161020777D01*
X114293000Y-158877000D01*
X114547000Y-158877000D01*
X114547000Y-161020777D01*
X114800434Y-161140124D01*
X114928355Y-161109144D01*
X115222761Y-160980010D01*
X115486317Y-160795922D01*
X115708895Y-160563954D01*
X115881942Y-160293020D01*
X115998807Y-159993532D01*
X116055000Y-159677000D01*
X116055000Y-158877000D01*
X114547000Y-158877000D01*
X114293000Y-158877000D01*
X114273000Y-158877000D01*
X114273000Y-158623000D01*
X114293000Y-158623000D01*
X114293000Y-156479223D01*
X114547000Y-156479223D01*
X114547000Y-158623000D01*
X116055000Y-158623000D01*
X116055000Y-157823000D01*
X115998807Y-157506468D01*
X115881942Y-157206980D01*
X115717808Y-156950000D01*
X120281928Y-156950000D01*
X120281928Y-160550000D01*
X120294188Y-160674482D01*
X120330498Y-160794180D01*
X120389463Y-160904494D01*
X120468815Y-161001185D01*
X120565506Y-161080537D01*
X120675820Y-161139502D01*
X120795518Y-161175812D01*
X120920000Y-161188072D01*
X122920000Y-161188072D01*
X123044482Y-161175812D01*
X123164180Y-161139502D01*
X123274494Y-161080537D01*
X123371185Y-161001185D01*
X123450537Y-160904494D01*
X123509502Y-160794180D01*
X123545812Y-160674482D01*
X123558072Y-160550000D01*
X123558072Y-159760475D01*
X156115000Y-159760475D01*
X156115000Y-160279525D01*
X156216261Y-160788601D01*
X156414893Y-161268141D01*
X156703262Y-161699715D01*
X157070285Y-162066738D01*
X157501859Y-162355107D01*
X157981399Y-162553739D01*
X158490475Y-162655000D01*
X159009525Y-162655000D01*
X159518601Y-162553739D01*
X159998141Y-162355107D01*
X160429715Y-162066738D01*
X160796738Y-161699715D01*
X161085107Y-161268141D01*
X161283739Y-160788601D01*
X161385000Y-160279525D01*
X161385000Y-159760475D01*
X161283739Y-159251399D01*
X161085107Y-158771859D01*
X160796738Y-158340285D01*
X160429715Y-157973262D01*
X159998141Y-157684893D01*
X159518601Y-157486261D01*
X159009525Y-157385000D01*
X158490475Y-157385000D01*
X157981399Y-157486261D01*
X157501859Y-157684893D01*
X157070285Y-157973262D01*
X156703262Y-158340285D01*
X156414893Y-158771859D01*
X156216261Y-159251399D01*
X156115000Y-159760475D01*
X123558072Y-159760475D01*
X123558072Y-156950000D01*
X123545812Y-156825518D01*
X123509502Y-156705820D01*
X123450537Y-156595506D01*
X123371185Y-156498815D01*
X123274494Y-156419463D01*
X123164180Y-156360498D01*
X123044482Y-156324188D01*
X122920000Y-156311928D01*
X120920000Y-156311928D01*
X120795518Y-156324188D01*
X120675820Y-156360498D01*
X120565506Y-156419463D01*
X120468815Y-156498815D01*
X120389463Y-156595506D01*
X120330498Y-156705820D01*
X120294188Y-156825518D01*
X120281928Y-156950000D01*
X115717808Y-156950000D01*
X115708895Y-156936046D01*
X115486317Y-156704078D01*
X115222761Y-156519990D01*
X114928355Y-156390856D01*
X114800434Y-156359876D01*
X114547000Y-156479223D01*
X114293000Y-156479223D01*
X114039566Y-156359876D01*
X113911645Y-156390856D01*
X113617239Y-156519990D01*
X113353683Y-156704078D01*
X113157000Y-156909059D01*
X113157000Y-134747000D01*
X115570000Y-134747000D01*
X115594776Y-134744560D01*
X115618601Y-134737333D01*
X115640557Y-134725597D01*
X115659803Y-134709803D01*
X115675597Y-134690557D01*
X115687333Y-134668601D01*
X115694560Y-134644776D01*
X115697000Y-134620000D01*
X115697000Y-134485413D01*
X145174192Y-134485413D01*
X145269956Y-134749814D01*
X145559571Y-134890704D01*
X145871108Y-134972384D01*
X146192595Y-134991718D01*
X146511675Y-134947961D01*
X146816088Y-134842795D01*
X146990044Y-134749814D01*
X147085808Y-134485413D01*
X146130000Y-133529605D01*
X145174192Y-134485413D01*
X115697000Y-134485413D01*
X115697000Y-133412595D01*
X144488282Y-133412595D01*
X144532039Y-133731675D01*
X144637205Y-134036088D01*
X144730186Y-134210044D01*
X144994587Y-134305808D01*
X145950395Y-133350000D01*
X146309605Y-133350000D01*
X147265413Y-134305808D01*
X147529814Y-134210044D01*
X147670704Y-133920429D01*
X147752384Y-133608892D01*
X147771718Y-133287405D01*
X147727961Y-132968325D01*
X147622795Y-132663912D01*
X147529814Y-132489956D01*
X147265413Y-132394192D01*
X146309605Y-133350000D01*
X145950395Y-133350000D01*
X144994587Y-132394192D01*
X144730186Y-132489956D01*
X144589296Y-132779571D01*
X144507616Y-133091108D01*
X144488282Y-133412595D01*
X115697000Y-133412595D01*
X115697000Y-132214587D01*
X145174192Y-132214587D01*
X146130000Y-133170395D01*
X147085808Y-132214587D01*
X146990044Y-131950186D01*
X146700429Y-131809296D01*
X146388892Y-131727616D01*
X146067405Y-131708282D01*
X145748325Y-131752039D01*
X145443912Y-131857205D01*
X145269956Y-131950186D01*
X145174192Y-132214587D01*
X115697000Y-132214587D01*
X115697000Y-123197980D01*
X119671626Y-123197980D01*
X119791514Y-123482836D01*
X120115210Y-123643699D01*
X120464069Y-123738322D01*
X120824684Y-123763067D01*
X121183198Y-123716985D01*
X121525833Y-123601846D01*
X121748486Y-123482836D01*
X121868374Y-123197980D01*
X120770000Y-122099605D01*
X119671626Y-123197980D01*
X115697000Y-123197980D01*
X115697000Y-121974684D01*
X118926933Y-121974684D01*
X118973015Y-122333198D01*
X119088154Y-122675833D01*
X119207164Y-122898486D01*
X119492020Y-123018374D01*
X120590395Y-121920000D01*
X120949605Y-121920000D01*
X122047980Y-123018374D01*
X122332836Y-122898486D01*
X122493699Y-122574790D01*
X122588322Y-122225931D01*
X122613067Y-121865316D01*
X122566985Y-121506802D01*
X122451846Y-121164167D01*
X122332836Y-120941514D01*
X122047980Y-120821626D01*
X120949605Y-121920000D01*
X120590395Y-121920000D01*
X119492020Y-120821626D01*
X119207164Y-120941514D01*
X119046301Y-121265210D01*
X118951678Y-121614069D01*
X118926933Y-121974684D01*
X115697000Y-121974684D01*
X115697000Y-120642020D01*
X119671626Y-120642020D01*
X120770000Y-121740395D01*
X121790394Y-120720000D01*
X126431928Y-120720000D01*
X126431928Y-123120000D01*
X126444188Y-123244482D01*
X126480498Y-123364180D01*
X126539463Y-123474494D01*
X126618815Y-123571185D01*
X126715506Y-123650537D01*
X126825820Y-123709502D01*
X126945518Y-123745812D01*
X127070000Y-123758072D01*
X129470000Y-123758072D01*
X129594482Y-123745812D01*
X129714180Y-123709502D01*
X129824494Y-123650537D01*
X129921185Y-123571185D01*
X130000537Y-123474494D01*
X130059502Y-123364180D01*
X130095812Y-123244482D01*
X130108072Y-123120000D01*
X130108072Y-120720000D01*
X130095812Y-120595518D01*
X130059502Y-120475820D01*
X130000537Y-120365506D01*
X129921185Y-120268815D01*
X129824494Y-120189463D01*
X129714180Y-120130498D01*
X129594482Y-120094188D01*
X129470000Y-120081928D01*
X127070000Y-120081928D01*
X126945518Y-120094188D01*
X126825820Y-120130498D01*
X126715506Y-120189463D01*
X126618815Y-120268815D01*
X126539463Y-120365506D01*
X126480498Y-120475820D01*
X126444188Y-120595518D01*
X126431928Y-120720000D01*
X121790394Y-120720000D01*
X121868374Y-120642020D01*
X121748486Y-120357164D01*
X121424790Y-120196301D01*
X121075931Y-120101678D01*
X120715316Y-120076933D01*
X120356802Y-120123015D01*
X120014167Y-120238154D01*
X119791514Y-120357164D01*
X119671626Y-120642020D01*
X115697000Y-120642020D01*
X115697000Y-117210000D01*
X144511928Y-117210000D01*
X144511928Y-119010000D01*
X144524188Y-119134482D01*
X144560498Y-119254180D01*
X144619463Y-119364494D01*
X144698815Y-119461185D01*
X144795506Y-119540537D01*
X144905820Y-119599502D01*
X145025518Y-119635812D01*
X145150000Y-119648072D01*
X146950000Y-119648072D01*
X147074482Y-119635812D01*
X147194180Y-119599502D01*
X147304494Y-119540537D01*
X147401185Y-119461185D01*
X147480537Y-119364494D01*
X147539502Y-119254180D01*
X147547689Y-119227192D01*
X147682427Y-119347962D01*
X147941380Y-119501234D01*
X148225259Y-119601041D01*
X148463000Y-119480992D01*
X148463000Y-118237000D01*
X148443000Y-118237000D01*
X148443000Y-117983000D01*
X148463000Y-117983000D01*
X148463000Y-116739008D01*
X148717000Y-116739008D01*
X148717000Y-117983000D01*
X148737000Y-117983000D01*
X148737000Y-118237000D01*
X148717000Y-118237000D01*
X148717000Y-119480992D01*
X148954741Y-119601041D01*
X149238620Y-119501234D01*
X149495001Y-119349484D01*
X149495000Y-132318808D01*
X149491928Y-132350000D01*
X149491928Y-134350000D01*
X149504188Y-134474482D01*
X149540498Y-134594180D01*
X149599463Y-134704494D01*
X149678815Y-134801185D01*
X149775506Y-134880537D01*
X149885820Y-134939502D01*
X150005518Y-134975812D01*
X150130000Y-134988072D01*
X151080869Y-134988072D01*
X151130000Y-134992911D01*
X151179131Y-134988072D01*
X152130000Y-134988072D01*
X152254482Y-134975812D01*
X152374180Y-134939502D01*
X152484494Y-134880537D01*
X152581185Y-134801185D01*
X152660537Y-134704494D01*
X152719502Y-134594180D01*
X152755812Y-134474482D01*
X152768072Y-134350000D01*
X152768072Y-132350000D01*
X152765000Y-132318808D01*
X152765000Y-118029678D01*
X152741343Y-117789484D01*
X152647852Y-117481285D01*
X152496031Y-117197248D01*
X152291714Y-116948286D01*
X152042752Y-116743969D01*
X151758715Y-116592148D01*
X151450516Y-116498657D01*
X151130000Y-116467089D01*
X150809485Y-116498657D01*
X150501286Y-116592148D01*
X150217249Y-116743969D01*
X149968287Y-116948286D01*
X149790604Y-117164794D01*
X149721649Y-117072884D01*
X149497573Y-116872038D01*
X149238620Y-116718766D01*
X148954741Y-116618959D01*
X148717000Y-116739008D01*
X148463000Y-116739008D01*
X148225259Y-116618959D01*
X147941380Y-116718766D01*
X147682427Y-116872038D01*
X147547689Y-116992808D01*
X147539502Y-116965820D01*
X147480537Y-116855506D01*
X147401185Y-116758815D01*
X147304494Y-116679463D01*
X147194180Y-116620498D01*
X147074482Y-116584188D01*
X146950000Y-116571928D01*
X145150000Y-116571928D01*
X145025518Y-116584188D01*
X144905820Y-116620498D01*
X144795506Y-116679463D01*
X144698815Y-116758815D01*
X144619463Y-116855506D01*
X144560498Y-116965820D01*
X144524188Y-117085518D01*
X144511928Y-117210000D01*
X115697000Y-117210000D01*
X115697000Y-114427000D01*
X128270000Y-114427000D01*
X128294776Y-114424560D01*
X128318601Y-114417333D01*
X128340557Y-114405597D01*
X128359803Y-114389803D01*
X128375597Y-114370557D01*
X128387333Y-114348601D01*
X128394560Y-114324776D01*
X128397000Y-114300000D01*
X128397000Y-101450000D01*
X146193461Y-101450000D01*
X146239510Y-101917542D01*
X146375887Y-102367116D01*
X146597351Y-102781446D01*
X146895391Y-103144609D01*
X147258554Y-103442649D01*
X147672884Y-103664113D01*
X148122458Y-103800490D01*
X148472843Y-103835000D01*
X148707157Y-103835000D01*
X149057542Y-103800490D01*
X149507116Y-103664113D01*
X149921446Y-103442649D01*
X150284609Y-103144609D01*
X150582649Y-102781446D01*
X150804113Y-102367116D01*
X150940490Y-101917542D01*
X150986539Y-101450000D01*
X150940490Y-100982458D01*
X150804113Y-100532884D01*
X150582649Y-100118554D01*
X150284609Y-99755391D01*
X149921446Y-99457351D01*
X149507116Y-99235887D01*
X149057542Y-99099510D01*
X148707157Y-99065000D01*
X148472843Y-99065000D01*
X148122458Y-99099510D01*
X147672884Y-99235887D01*
X147258554Y-99457351D01*
X146895391Y-99755391D01*
X146597351Y-100118554D01*
X146375887Y-100532884D01*
X146239510Y-100982458D01*
X146193461Y-101450000D01*
X128397000Y-101450000D01*
X128397000Y-90340000D01*
X141771928Y-90340000D01*
X141771928Y-92540000D01*
X141784188Y-92664482D01*
X141820498Y-92784180D01*
X141879463Y-92894494D01*
X141958815Y-92991185D01*
X142055506Y-93070537D01*
X142165820Y-93129502D01*
X142285518Y-93165812D01*
X142410000Y-93178072D01*
X144610000Y-93178072D01*
X144734482Y-93165812D01*
X144854180Y-93129502D01*
X144964494Y-93070537D01*
X145061185Y-92991185D01*
X145140537Y-92894494D01*
X145199502Y-92784180D01*
X145235812Y-92664482D01*
X145248072Y-92540000D01*
X145248072Y-91440000D01*
X151926606Y-91440000D01*
X151960105Y-91780119D01*
X152059314Y-92107168D01*
X152220421Y-92408578D01*
X152437234Y-92672766D01*
X152701422Y-92889579D01*
X153002832Y-93050686D01*
X153329881Y-93149895D01*
X153584775Y-93175000D01*
X153755225Y-93175000D01*
X154010119Y-93149895D01*
X154337168Y-93050686D01*
X154638578Y-92889579D01*
X154902766Y-92672766D01*
X155119579Y-92408578D01*
X155280686Y-92107168D01*
X155379895Y-91780119D01*
X155413394Y-91440000D01*
X155379895Y-91099881D01*
X155280686Y-90772832D01*
X155119579Y-90471422D01*
X154902766Y-90207234D01*
X154638578Y-89990421D01*
X154337168Y-89829314D01*
X154010119Y-89730105D01*
X153755225Y-89705000D01*
X153584775Y-89705000D01*
X153329881Y-89730105D01*
X153002832Y-89829314D01*
X152701422Y-89990421D01*
X152437234Y-90207234D01*
X152220421Y-90471422D01*
X152059314Y-90772832D01*
X151960105Y-91099881D01*
X151926606Y-91440000D01*
X145248072Y-91440000D01*
X145248072Y-90340000D01*
X145235812Y-90215518D01*
X145199502Y-90095820D01*
X145140537Y-89985506D01*
X145061185Y-89888815D01*
X144964494Y-89809463D01*
X144854180Y-89750498D01*
X144734482Y-89714188D01*
X144610000Y-89701928D01*
X142410000Y-89701928D01*
X142285518Y-89714188D01*
X142165820Y-89750498D01*
X142055506Y-89809463D01*
X141958815Y-89888815D01*
X141879463Y-89985506D01*
X141820498Y-90095820D01*
X141784188Y-90215518D01*
X141771928Y-90340000D01*
X128397000Y-90340000D01*
X128397000Y-83947000D01*
X162433000Y-83947000D01*
X162433000Y-163703000D01*
X162433000Y-163703000D01*
G37*
X162433000Y-163703000D02*
X113157000Y-163703000D01*
X113157000Y-160590941D01*
X113353683Y-160795922D01*
X113617239Y-160980010D01*
X113911645Y-161109144D01*
X114039566Y-161140124D01*
X114293000Y-161020777D01*
X114293000Y-158877000D01*
X114547000Y-158877000D01*
X114547000Y-161020777D01*
X114800434Y-161140124D01*
X114928355Y-161109144D01*
X115222761Y-160980010D01*
X115486317Y-160795922D01*
X115708895Y-160563954D01*
X115881942Y-160293020D01*
X115998807Y-159993532D01*
X116055000Y-159677000D01*
X116055000Y-158877000D01*
X114547000Y-158877000D01*
X114293000Y-158877000D01*
X114273000Y-158877000D01*
X114273000Y-158623000D01*
X114293000Y-158623000D01*
X114293000Y-156479223D01*
X114547000Y-156479223D01*
X114547000Y-158623000D01*
X116055000Y-158623000D01*
X116055000Y-157823000D01*
X115998807Y-157506468D01*
X115881942Y-157206980D01*
X115717808Y-156950000D01*
X120281928Y-156950000D01*
X120281928Y-160550000D01*
X120294188Y-160674482D01*
X120330498Y-160794180D01*
X120389463Y-160904494D01*
X120468815Y-161001185D01*
X120565506Y-161080537D01*
X120675820Y-161139502D01*
X120795518Y-161175812D01*
X120920000Y-161188072D01*
X122920000Y-161188072D01*
X123044482Y-161175812D01*
X123164180Y-161139502D01*
X123274494Y-161080537D01*
X123371185Y-161001185D01*
X123450537Y-160904494D01*
X123509502Y-160794180D01*
X123545812Y-160674482D01*
X123558072Y-160550000D01*
X123558072Y-159760475D01*
X156115000Y-159760475D01*
X156115000Y-160279525D01*
X156216261Y-160788601D01*
X156414893Y-161268141D01*
X156703262Y-161699715D01*
X157070285Y-162066738D01*
X157501859Y-162355107D01*
X157981399Y-162553739D01*
X158490475Y-162655000D01*
X159009525Y-162655000D01*
X159518601Y-162553739D01*
X159998141Y-162355107D01*
X160429715Y-162066738D01*
X160796738Y-161699715D01*
X161085107Y-161268141D01*
X161283739Y-160788601D01*
X161385000Y-160279525D01*
X161385000Y-159760475D01*
X161283739Y-159251399D01*
X161085107Y-158771859D01*
X160796738Y-158340285D01*
X160429715Y-157973262D01*
X159998141Y-157684893D01*
X159518601Y-157486261D01*
X159009525Y-157385000D01*
X158490475Y-157385000D01*
X157981399Y-157486261D01*
X157501859Y-157684893D01*
X157070285Y-157973262D01*
X156703262Y-158340285D01*
X156414893Y-158771859D01*
X156216261Y-159251399D01*
X156115000Y-159760475D01*
X123558072Y-159760475D01*
X123558072Y-156950000D01*
X123545812Y-156825518D01*
X123509502Y-156705820D01*
X123450537Y-156595506D01*
X123371185Y-156498815D01*
X123274494Y-156419463D01*
X123164180Y-156360498D01*
X123044482Y-156324188D01*
X122920000Y-156311928D01*
X120920000Y-156311928D01*
X120795518Y-156324188D01*
X120675820Y-156360498D01*
X120565506Y-156419463D01*
X120468815Y-156498815D01*
X120389463Y-156595506D01*
X120330498Y-156705820D01*
X120294188Y-156825518D01*
X120281928Y-156950000D01*
X115717808Y-156950000D01*
X115708895Y-156936046D01*
X115486317Y-156704078D01*
X115222761Y-156519990D01*
X114928355Y-156390856D01*
X114800434Y-156359876D01*
X114547000Y-156479223D01*
X114293000Y-156479223D01*
X114039566Y-156359876D01*
X113911645Y-156390856D01*
X113617239Y-156519990D01*
X113353683Y-156704078D01*
X113157000Y-156909059D01*
X113157000Y-134747000D01*
X115570000Y-134747000D01*
X115594776Y-134744560D01*
X115618601Y-134737333D01*
X115640557Y-134725597D01*
X115659803Y-134709803D01*
X115675597Y-134690557D01*
X115687333Y-134668601D01*
X115694560Y-134644776D01*
X115697000Y-134620000D01*
X115697000Y-134485413D01*
X145174192Y-134485413D01*
X145269956Y-134749814D01*
X145559571Y-134890704D01*
X145871108Y-134972384D01*
X146192595Y-134991718D01*
X146511675Y-134947961D01*
X146816088Y-134842795D01*
X146990044Y-134749814D01*
X147085808Y-134485413D01*
X146130000Y-133529605D01*
X145174192Y-134485413D01*
X115697000Y-134485413D01*
X115697000Y-133412595D01*
X144488282Y-133412595D01*
X144532039Y-133731675D01*
X144637205Y-134036088D01*
X144730186Y-134210044D01*
X144994587Y-134305808D01*
X145950395Y-133350000D01*
X146309605Y-133350000D01*
X147265413Y-134305808D01*
X147529814Y-134210044D01*
X147670704Y-133920429D01*
X147752384Y-133608892D01*
X147771718Y-133287405D01*
X147727961Y-132968325D01*
X147622795Y-132663912D01*
X147529814Y-132489956D01*
X147265413Y-132394192D01*
X146309605Y-133350000D01*
X145950395Y-133350000D01*
X144994587Y-132394192D01*
X144730186Y-132489956D01*
X144589296Y-132779571D01*
X144507616Y-133091108D01*
X144488282Y-133412595D01*
X115697000Y-133412595D01*
X115697000Y-132214587D01*
X145174192Y-132214587D01*
X146130000Y-133170395D01*
X147085808Y-132214587D01*
X146990044Y-131950186D01*
X146700429Y-131809296D01*
X146388892Y-131727616D01*
X146067405Y-131708282D01*
X145748325Y-131752039D01*
X145443912Y-131857205D01*
X145269956Y-131950186D01*
X145174192Y-132214587D01*
X115697000Y-132214587D01*
X115697000Y-123197980D01*
X119671626Y-123197980D01*
X119791514Y-123482836D01*
X120115210Y-123643699D01*
X120464069Y-123738322D01*
X120824684Y-123763067D01*
X121183198Y-123716985D01*
X121525833Y-123601846D01*
X121748486Y-123482836D01*
X121868374Y-123197980D01*
X120770000Y-122099605D01*
X119671626Y-123197980D01*
X115697000Y-123197980D01*
X115697000Y-121974684D01*
X118926933Y-121974684D01*
X118973015Y-122333198D01*
X119088154Y-122675833D01*
X119207164Y-122898486D01*
X119492020Y-123018374D01*
X120590395Y-121920000D01*
X120949605Y-121920000D01*
X122047980Y-123018374D01*
X122332836Y-122898486D01*
X122493699Y-122574790D01*
X122588322Y-122225931D01*
X122613067Y-121865316D01*
X122566985Y-121506802D01*
X122451846Y-121164167D01*
X122332836Y-120941514D01*
X122047980Y-120821626D01*
X120949605Y-121920000D01*
X120590395Y-121920000D01*
X119492020Y-120821626D01*
X119207164Y-120941514D01*
X119046301Y-121265210D01*
X118951678Y-121614069D01*
X118926933Y-121974684D01*
X115697000Y-121974684D01*
X115697000Y-120642020D01*
X119671626Y-120642020D01*
X120770000Y-121740395D01*
X121790394Y-120720000D01*
X126431928Y-120720000D01*
X126431928Y-123120000D01*
X126444188Y-123244482D01*
X126480498Y-123364180D01*
X126539463Y-123474494D01*
X126618815Y-123571185D01*
X126715506Y-123650537D01*
X126825820Y-123709502D01*
X126945518Y-123745812D01*
X127070000Y-123758072D01*
X129470000Y-123758072D01*
X129594482Y-123745812D01*
X129714180Y-123709502D01*
X129824494Y-123650537D01*
X129921185Y-123571185D01*
X130000537Y-123474494D01*
X130059502Y-123364180D01*
X130095812Y-123244482D01*
X130108072Y-123120000D01*
X130108072Y-120720000D01*
X130095812Y-120595518D01*
X130059502Y-120475820D01*
X130000537Y-120365506D01*
X129921185Y-120268815D01*
X129824494Y-120189463D01*
X129714180Y-120130498D01*
X129594482Y-120094188D01*
X129470000Y-120081928D01*
X127070000Y-120081928D01*
X126945518Y-120094188D01*
X126825820Y-120130498D01*
X126715506Y-120189463D01*
X126618815Y-120268815D01*
X126539463Y-120365506D01*
X126480498Y-120475820D01*
X126444188Y-120595518D01*
X126431928Y-120720000D01*
X121790394Y-120720000D01*
X121868374Y-120642020D01*
X121748486Y-120357164D01*
X121424790Y-120196301D01*
X121075931Y-120101678D01*
X120715316Y-120076933D01*
X120356802Y-120123015D01*
X120014167Y-120238154D01*
X119791514Y-120357164D01*
X119671626Y-120642020D01*
X115697000Y-120642020D01*
X115697000Y-117210000D01*
X144511928Y-117210000D01*
X144511928Y-119010000D01*
X144524188Y-119134482D01*
X144560498Y-119254180D01*
X144619463Y-119364494D01*
X144698815Y-119461185D01*
X144795506Y-119540537D01*
X144905820Y-119599502D01*
X145025518Y-119635812D01*
X145150000Y-119648072D01*
X146950000Y-119648072D01*
X147074482Y-119635812D01*
X147194180Y-119599502D01*
X147304494Y-119540537D01*
X147401185Y-119461185D01*
X147480537Y-119364494D01*
X147539502Y-119254180D01*
X147547689Y-119227192D01*
X147682427Y-119347962D01*
X147941380Y-119501234D01*
X148225259Y-119601041D01*
X148463000Y-119480992D01*
X148463000Y-118237000D01*
X148443000Y-118237000D01*
X148443000Y-117983000D01*
X148463000Y-117983000D01*
X148463000Y-116739008D01*
X148717000Y-116739008D01*
X148717000Y-117983000D01*
X148737000Y-117983000D01*
X148737000Y-118237000D01*
X148717000Y-118237000D01*
X148717000Y-119480992D01*
X148954741Y-119601041D01*
X149238620Y-119501234D01*
X149495001Y-119349484D01*
X149495000Y-132318808D01*
X149491928Y-132350000D01*
X149491928Y-134350000D01*
X149504188Y-134474482D01*
X149540498Y-134594180D01*
X149599463Y-134704494D01*
X149678815Y-134801185D01*
X149775506Y-134880537D01*
X149885820Y-134939502D01*
X150005518Y-134975812D01*
X150130000Y-134988072D01*
X151080869Y-134988072D01*
X151130000Y-134992911D01*
X151179131Y-134988072D01*
X152130000Y-134988072D01*
X152254482Y-134975812D01*
X152374180Y-134939502D01*
X152484494Y-134880537D01*
X152581185Y-134801185D01*
X152660537Y-134704494D01*
X152719502Y-134594180D01*
X152755812Y-134474482D01*
X152768072Y-134350000D01*
X152768072Y-132350000D01*
X152765000Y-132318808D01*
X152765000Y-118029678D01*
X152741343Y-117789484D01*
X152647852Y-117481285D01*
X152496031Y-117197248D01*
X152291714Y-116948286D01*
X152042752Y-116743969D01*
X151758715Y-116592148D01*
X151450516Y-116498657D01*
X151130000Y-116467089D01*
X150809485Y-116498657D01*
X150501286Y-116592148D01*
X150217249Y-116743969D01*
X149968287Y-116948286D01*
X149790604Y-117164794D01*
X149721649Y-117072884D01*
X149497573Y-116872038D01*
X149238620Y-116718766D01*
X148954741Y-116618959D01*
X148717000Y-116739008D01*
X148463000Y-116739008D01*
X148225259Y-116618959D01*
X147941380Y-116718766D01*
X147682427Y-116872038D01*
X147547689Y-116992808D01*
X147539502Y-116965820D01*
X147480537Y-116855506D01*
X147401185Y-116758815D01*
X147304494Y-116679463D01*
X147194180Y-116620498D01*
X147074482Y-116584188D01*
X146950000Y-116571928D01*
X145150000Y-116571928D01*
X145025518Y-116584188D01*
X144905820Y-116620498D01*
X144795506Y-116679463D01*
X144698815Y-116758815D01*
X144619463Y-116855506D01*
X144560498Y-116965820D01*
X144524188Y-117085518D01*
X144511928Y-117210000D01*
X115697000Y-117210000D01*
X115697000Y-114427000D01*
X128270000Y-114427000D01*
X128294776Y-114424560D01*
X128318601Y-114417333D01*
X128340557Y-114405597D01*
X128359803Y-114389803D01*
X128375597Y-114370557D01*
X128387333Y-114348601D01*
X128394560Y-114324776D01*
X128397000Y-114300000D01*
X128397000Y-101450000D01*
X146193461Y-101450000D01*
X146239510Y-101917542D01*
X146375887Y-102367116D01*
X146597351Y-102781446D01*
X146895391Y-103144609D01*
X147258554Y-103442649D01*
X147672884Y-103664113D01*
X148122458Y-103800490D01*
X148472843Y-103835000D01*
X148707157Y-103835000D01*
X149057542Y-103800490D01*
X149507116Y-103664113D01*
X149921446Y-103442649D01*
X150284609Y-103144609D01*
X150582649Y-102781446D01*
X150804113Y-102367116D01*
X150940490Y-101917542D01*
X150986539Y-101450000D01*
X150940490Y-100982458D01*
X150804113Y-100532884D01*
X150582649Y-100118554D01*
X150284609Y-99755391D01*
X149921446Y-99457351D01*
X149507116Y-99235887D01*
X149057542Y-99099510D01*
X148707157Y-99065000D01*
X148472843Y-99065000D01*
X148122458Y-99099510D01*
X147672884Y-99235887D01*
X147258554Y-99457351D01*
X146895391Y-99755391D01*
X146597351Y-100118554D01*
X146375887Y-100532884D01*
X146239510Y-100982458D01*
X146193461Y-101450000D01*
X128397000Y-101450000D01*
X128397000Y-90340000D01*
X141771928Y-90340000D01*
X141771928Y-92540000D01*
X141784188Y-92664482D01*
X141820498Y-92784180D01*
X141879463Y-92894494D01*
X141958815Y-92991185D01*
X142055506Y-93070537D01*
X142165820Y-93129502D01*
X142285518Y-93165812D01*
X142410000Y-93178072D01*
X144610000Y-93178072D01*
X144734482Y-93165812D01*
X144854180Y-93129502D01*
X144964494Y-93070537D01*
X145061185Y-92991185D01*
X145140537Y-92894494D01*
X145199502Y-92784180D01*
X145235812Y-92664482D01*
X145248072Y-92540000D01*
X145248072Y-91440000D01*
X151926606Y-91440000D01*
X151960105Y-91780119D01*
X152059314Y-92107168D01*
X152220421Y-92408578D01*
X152437234Y-92672766D01*
X152701422Y-92889579D01*
X153002832Y-93050686D01*
X153329881Y-93149895D01*
X153584775Y-93175000D01*
X153755225Y-93175000D01*
X154010119Y-93149895D01*
X154337168Y-93050686D01*
X154638578Y-92889579D01*
X154902766Y-92672766D01*
X155119579Y-92408578D01*
X155280686Y-92107168D01*
X155379895Y-91780119D01*
X155413394Y-91440000D01*
X155379895Y-91099881D01*
X155280686Y-90772832D01*
X155119579Y-90471422D01*
X154902766Y-90207234D01*
X154638578Y-89990421D01*
X154337168Y-89829314D01*
X154010119Y-89730105D01*
X153755225Y-89705000D01*
X153584775Y-89705000D01*
X153329881Y-89730105D01*
X153002832Y-89829314D01*
X152701422Y-89990421D01*
X152437234Y-90207234D01*
X152220421Y-90471422D01*
X152059314Y-90772832D01*
X151960105Y-91099881D01*
X151926606Y-91440000D01*
X145248072Y-91440000D01*
X145248072Y-90340000D01*
X145235812Y-90215518D01*
X145199502Y-90095820D01*
X145140537Y-89985506D01*
X145061185Y-89888815D01*
X144964494Y-89809463D01*
X144854180Y-89750498D01*
X144734482Y-89714188D01*
X144610000Y-89701928D01*
X142410000Y-89701928D01*
X142285518Y-89714188D01*
X142165820Y-89750498D01*
X142055506Y-89809463D01*
X141958815Y-89888815D01*
X141879463Y-89985506D01*
X141820498Y-90095820D01*
X141784188Y-90215518D01*
X141771928Y-90340000D01*
X128397000Y-90340000D01*
X128397000Y-83947000D01*
X162433000Y-83947000D01*
X162433000Y-163703000D01*
G36*
X100203000Y-114300000D02*
G01*
X100205440Y-114324776D01*
X100212667Y-114348601D01*
X100224403Y-114370557D01*
X100240197Y-114389803D01*
X100259443Y-114405597D01*
X100281399Y-114417333D01*
X100305224Y-114424560D01*
X100330000Y-114427000D01*
X114173000Y-114427000D01*
X114173000Y-133223000D01*
X111760000Y-133223000D01*
X111735224Y-133225440D01*
X111711399Y-133232667D01*
X111689443Y-133244403D01*
X111670197Y-133260197D01*
X111654403Y-133279443D01*
X111642667Y-133301399D01*
X111635440Y-133325224D01*
X111633000Y-133350000D01*
X111633000Y-163703000D01*
X64897000Y-163703000D01*
X64897000Y-159760475D01*
X65945000Y-159760475D01*
X65945000Y-160279525D01*
X66046261Y-160788601D01*
X66244893Y-161268141D01*
X66533262Y-161699715D01*
X66900285Y-162066738D01*
X67331859Y-162355107D01*
X67811399Y-162553739D01*
X68320475Y-162655000D01*
X68839525Y-162655000D01*
X69348601Y-162553739D01*
X69828141Y-162355107D01*
X70259715Y-162066738D01*
X70626738Y-161699715D01*
X70915107Y-161268141D01*
X71113739Y-160788601D01*
X71215000Y-160279525D01*
X71215000Y-159760475D01*
X71113739Y-159251399D01*
X70915107Y-158771859D01*
X70626738Y-158340285D01*
X70259715Y-157973262D01*
X70104691Y-157869678D01*
X105285000Y-157869678D01*
X105285000Y-159630321D01*
X105308657Y-159870515D01*
X105402148Y-160178714D01*
X105553969Y-160462751D01*
X105758286Y-160711714D01*
X106007248Y-160916031D01*
X106291285Y-161067852D01*
X106599484Y-161161343D01*
X106920000Y-161192911D01*
X107240515Y-161161343D01*
X107548714Y-161067852D01*
X107832751Y-160916031D01*
X108081714Y-160711714D01*
X108286031Y-160462752D01*
X108437852Y-160178715D01*
X108531343Y-159870516D01*
X108555000Y-159630322D01*
X108555000Y-157869678D01*
X108531343Y-157629484D01*
X108437852Y-157321285D01*
X108286031Y-157037248D01*
X108081714Y-156788286D01*
X107832752Y-156583969D01*
X107548715Y-156432148D01*
X107240516Y-156338657D01*
X106920000Y-156307089D01*
X106599485Y-156338657D01*
X106291286Y-156432148D01*
X106007249Y-156583969D01*
X105758287Y-156788286D01*
X105553970Y-157037248D01*
X105402149Y-157321285D01*
X105308658Y-157629484D01*
X105285000Y-157869678D01*
X70104691Y-157869678D01*
X69828141Y-157684893D01*
X69348601Y-157486261D01*
X68839525Y-157385000D01*
X68320475Y-157385000D01*
X67811399Y-157486261D01*
X67331859Y-157684893D01*
X66900285Y-157973262D01*
X66533262Y-158340285D01*
X66244893Y-158771859D01*
X66046261Y-159251399D01*
X65945000Y-159760475D01*
X64897000Y-159760475D01*
X64897000Y-133188967D01*
X80995000Y-133188967D01*
X80995000Y-133511033D01*
X81057832Y-133826912D01*
X81181082Y-134124463D01*
X81360013Y-134392252D01*
X81587748Y-134619987D01*
X81855537Y-134798918D01*
X82153088Y-134922168D01*
X82468967Y-134985000D01*
X82791033Y-134985000D01*
X83106912Y-134922168D01*
X83404463Y-134798918D01*
X83672252Y-134619987D01*
X83899987Y-134392252D01*
X84078918Y-134124463D01*
X84202168Y-133826912D01*
X84265000Y-133511033D01*
X84265000Y-133188967D01*
X84202168Y-132873088D01*
X84078918Y-132575537D01*
X83928219Y-132350000D01*
X85991928Y-132350000D01*
X85991928Y-134350000D01*
X86004188Y-134474482D01*
X86040498Y-134594180D01*
X86099463Y-134704494D01*
X86178815Y-134801185D01*
X86275506Y-134880537D01*
X86385820Y-134939502D01*
X86505518Y-134975812D01*
X86630000Y-134988072D01*
X88630000Y-134988072D01*
X88754482Y-134975812D01*
X88874180Y-134939502D01*
X88984494Y-134880537D01*
X89081185Y-134801185D01*
X89160537Y-134704494D01*
X89219502Y-134594180D01*
X89255812Y-134474482D01*
X89268072Y-134350000D01*
X89268072Y-132350000D01*
X89255812Y-132225518D01*
X89219502Y-132105820D01*
X89160537Y-131995506D01*
X89081185Y-131898815D01*
X88984494Y-131819463D01*
X88874180Y-131760498D01*
X88754482Y-131724188D01*
X88630000Y-131711928D01*
X86630000Y-131711928D01*
X86505518Y-131724188D01*
X86385820Y-131760498D01*
X86275506Y-131819463D01*
X86178815Y-131898815D01*
X86099463Y-131995506D01*
X86040498Y-132105820D01*
X86004188Y-132225518D01*
X85991928Y-132350000D01*
X83928219Y-132350000D01*
X83899987Y-132307748D01*
X83672252Y-132080013D01*
X83404463Y-131901082D01*
X83106912Y-131777832D01*
X82791033Y-131715000D01*
X82468967Y-131715000D01*
X82153088Y-131777832D01*
X81855537Y-131901082D01*
X81587748Y-132080013D01*
X81360013Y-132307748D01*
X81181082Y-132575537D01*
X81057832Y-132873088D01*
X80995000Y-133188967D01*
X64897000Y-133188967D01*
X64897000Y-123197980D01*
X99351626Y-123197980D01*
X99471514Y-123482836D01*
X99795210Y-123643699D01*
X100144069Y-123738322D01*
X100504684Y-123763067D01*
X100863198Y-123716985D01*
X101205833Y-123601846D01*
X101428486Y-123482836D01*
X101548374Y-123197980D01*
X100450000Y-122099605D01*
X99351626Y-123197980D01*
X64897000Y-123197980D01*
X64897000Y-121974684D01*
X98606933Y-121974684D01*
X98653015Y-122333198D01*
X98768154Y-122675833D01*
X98887164Y-122898486D01*
X99172020Y-123018374D01*
X100270395Y-121920000D01*
X100629605Y-121920000D01*
X101727980Y-123018374D01*
X102012836Y-122898486D01*
X102173699Y-122574790D01*
X102268322Y-122225931D01*
X102293067Y-121865316D01*
X102246985Y-121506802D01*
X102131846Y-121164167D01*
X102012836Y-120941514D01*
X101727980Y-120821626D01*
X100629605Y-121920000D01*
X100270395Y-121920000D01*
X99172020Y-120821626D01*
X98887164Y-120941514D01*
X98726301Y-121265210D01*
X98631678Y-121614069D01*
X98606933Y-121974684D01*
X64897000Y-121974684D01*
X64897000Y-119530000D01*
X82693461Y-119530000D01*
X82739510Y-119997542D01*
X82875887Y-120447116D01*
X83097351Y-120861446D01*
X83395391Y-121224609D01*
X83758554Y-121522649D01*
X84172884Y-121744113D01*
X84622458Y-121880490D01*
X84972843Y-121915000D01*
X85207157Y-121915000D01*
X85557542Y-121880490D01*
X86007116Y-121744113D01*
X86421446Y-121522649D01*
X86784609Y-121224609D01*
X87082649Y-120861446D01*
X87199934Y-120642020D01*
X99351626Y-120642020D01*
X100450000Y-121740395D01*
X101470394Y-120720000D01*
X106111928Y-120720000D01*
X106111928Y-123120000D01*
X106124188Y-123244482D01*
X106160498Y-123364180D01*
X106219463Y-123474494D01*
X106298815Y-123571185D01*
X106395506Y-123650537D01*
X106505820Y-123709502D01*
X106625518Y-123745812D01*
X106750000Y-123758072D01*
X109150000Y-123758072D01*
X109274482Y-123745812D01*
X109394180Y-123709502D01*
X109504494Y-123650537D01*
X109601185Y-123571185D01*
X109680537Y-123474494D01*
X109739502Y-123364180D01*
X109775812Y-123244482D01*
X109788072Y-123120000D01*
X109788072Y-120720000D01*
X109775812Y-120595518D01*
X109739502Y-120475820D01*
X109680537Y-120365506D01*
X109601185Y-120268815D01*
X109504494Y-120189463D01*
X109394180Y-120130498D01*
X109274482Y-120094188D01*
X109150000Y-120081928D01*
X106750000Y-120081928D01*
X106625518Y-120094188D01*
X106505820Y-120130498D01*
X106395506Y-120189463D01*
X106298815Y-120268815D01*
X106219463Y-120365506D01*
X106160498Y-120475820D01*
X106124188Y-120595518D01*
X106111928Y-120720000D01*
X101470394Y-120720000D01*
X101548374Y-120642020D01*
X101428486Y-120357164D01*
X101104790Y-120196301D01*
X100755931Y-120101678D01*
X100395316Y-120076933D01*
X100036802Y-120123015D01*
X99694167Y-120238154D01*
X99471514Y-120357164D01*
X99351626Y-120642020D01*
X87199934Y-120642020D01*
X87304113Y-120447116D01*
X87440490Y-119997542D01*
X87486539Y-119530000D01*
X87440490Y-119062458D01*
X87304113Y-118612884D01*
X87082649Y-118198554D01*
X86784609Y-117835391D01*
X86421446Y-117537351D01*
X86007116Y-117315887D01*
X85557542Y-117179510D01*
X85207157Y-117145000D01*
X84972843Y-117145000D01*
X84622458Y-117179510D01*
X84172884Y-117315887D01*
X83758554Y-117537351D01*
X83395391Y-117835391D01*
X83097351Y-118198554D01*
X82875887Y-118612884D01*
X82739510Y-119062458D01*
X82693461Y-119530000D01*
X64897000Y-119530000D01*
X64897000Y-102870000D01*
X81007573Y-102870000D01*
X81037210Y-103170913D01*
X81124983Y-103460261D01*
X81267519Y-103726927D01*
X81459339Y-103960661D01*
X81693073Y-104152481D01*
X81959739Y-104295017D01*
X82249087Y-104382790D01*
X82474592Y-104405000D01*
X82625408Y-104405000D01*
X82850913Y-104382790D01*
X83140261Y-104295017D01*
X83406927Y-104152481D01*
X83640661Y-103960661D01*
X83827614Y-103732858D01*
X83958351Y-103907116D01*
X84182427Y-104107962D01*
X84441380Y-104261234D01*
X84725259Y-104361041D01*
X84963000Y-104240992D01*
X84963000Y-102997000D01*
X84943000Y-102997000D01*
X84943000Y-102743000D01*
X84963000Y-102743000D01*
X84963000Y-101499008D01*
X85217000Y-101499008D01*
X85217000Y-102743000D01*
X85237000Y-102743000D01*
X85237000Y-102997000D01*
X85217000Y-102997000D01*
X85217000Y-104240992D01*
X85454741Y-104361041D01*
X85738620Y-104261234D01*
X85997573Y-104107962D01*
X86132311Y-103987192D01*
X86140498Y-104014180D01*
X86199463Y-104124494D01*
X86278815Y-104221185D01*
X86375506Y-104300537D01*
X86485820Y-104359502D01*
X86605518Y-104395812D01*
X86730000Y-104408072D01*
X88530000Y-104408072D01*
X88654482Y-104395812D01*
X88774180Y-104359502D01*
X88884494Y-104300537D01*
X88981185Y-104221185D01*
X89060537Y-104124494D01*
X89119502Y-104014180D01*
X89155812Y-103894482D01*
X89168072Y-103770000D01*
X89168072Y-101970000D01*
X89155812Y-101845518D01*
X89119502Y-101725820D01*
X89060537Y-101615506D01*
X88981185Y-101518815D01*
X88884494Y-101439463D01*
X88774180Y-101380498D01*
X88654482Y-101344188D01*
X88530000Y-101331928D01*
X86730000Y-101331928D01*
X86605518Y-101344188D01*
X86485820Y-101380498D01*
X86375506Y-101439463D01*
X86278815Y-101518815D01*
X86199463Y-101615506D01*
X86140498Y-101725820D01*
X86132311Y-101752808D01*
X85997573Y-101632038D01*
X85738620Y-101478766D01*
X85454741Y-101378959D01*
X85217000Y-101499008D01*
X84963000Y-101499008D01*
X84725259Y-101378959D01*
X84441380Y-101478766D01*
X84182427Y-101632038D01*
X83958351Y-101832884D01*
X83827614Y-102007142D01*
X83640661Y-101779339D01*
X83406927Y-101587519D01*
X83140261Y-101444983D01*
X82850913Y-101357210D01*
X82625408Y-101335000D01*
X82474592Y-101335000D01*
X82249087Y-101357210D01*
X81959739Y-101444983D01*
X81693073Y-101587519D01*
X81459339Y-101779339D01*
X81267519Y-102013073D01*
X81124983Y-102279739D01*
X81037210Y-102569087D01*
X81007573Y-102870000D01*
X64897000Y-102870000D01*
X64897000Y-90340000D01*
X78271928Y-90340000D01*
X78271928Y-92540000D01*
X78284188Y-92664482D01*
X78320498Y-92784180D01*
X78379463Y-92894494D01*
X78458815Y-92991185D01*
X78555506Y-93070537D01*
X78665820Y-93129502D01*
X78785518Y-93165812D01*
X78910000Y-93178072D01*
X81110000Y-93178072D01*
X81234482Y-93165812D01*
X81354180Y-93129502D01*
X81464494Y-93070537D01*
X81561185Y-92991185D01*
X81640537Y-92894494D01*
X81699502Y-92784180D01*
X81735812Y-92664482D01*
X81748072Y-92540000D01*
X81748072Y-91836122D01*
X88480825Y-91836122D01*
X88545425Y-92049094D01*
X88695469Y-92354329D01*
X88902178Y-92624427D01*
X89157609Y-92849008D01*
X89451946Y-93019442D01*
X89773877Y-93129179D01*
X90043000Y-93011600D01*
X90043000Y-91567000D01*
X90297000Y-91567000D01*
X90297000Y-93011600D01*
X90566123Y-93129179D01*
X90888054Y-93019442D01*
X91182391Y-92849008D01*
X91437822Y-92624427D01*
X91644531Y-92354329D01*
X91794575Y-92049094D01*
X91859175Y-91836122D01*
X91741125Y-91567000D01*
X90297000Y-91567000D01*
X90043000Y-91567000D01*
X88598875Y-91567000D01*
X88480825Y-91836122D01*
X81748072Y-91836122D01*
X81748072Y-91043878D01*
X88480825Y-91043878D01*
X88598875Y-91313000D01*
X90043000Y-91313000D01*
X90043000Y-89868400D01*
X90297000Y-89868400D01*
X90297000Y-91313000D01*
X91741125Y-91313000D01*
X91859175Y-91043878D01*
X91794575Y-90830906D01*
X91644531Y-90525671D01*
X91437822Y-90255573D01*
X91182391Y-90030992D01*
X90888054Y-89860558D01*
X90566123Y-89750821D01*
X90297000Y-89868400D01*
X90043000Y-89868400D01*
X89773877Y-89750821D01*
X89451946Y-89860558D01*
X89157609Y-90030992D01*
X88902178Y-90255573D01*
X88695469Y-90525671D01*
X88545425Y-90830906D01*
X88480825Y-91043878D01*
X81748072Y-91043878D01*
X81748072Y-90340000D01*
X81735812Y-90215518D01*
X81699502Y-90095820D01*
X81640537Y-89985506D01*
X81561185Y-89888815D01*
X81464494Y-89809463D01*
X81354180Y-89750498D01*
X81234482Y-89714188D01*
X81110000Y-89701928D01*
X78910000Y-89701928D01*
X78785518Y-89714188D01*
X78665820Y-89750498D01*
X78555506Y-89809463D01*
X78458815Y-89888815D01*
X78379463Y-89985506D01*
X78320498Y-90095820D01*
X78284188Y-90215518D01*
X78271928Y-90340000D01*
X64897000Y-90340000D01*
X64897000Y-83947000D01*
X100203000Y-83947000D01*
X100203000Y-114300000D01*
X100203000Y-114300000D01*
G37*
X100203000Y-114300000D02*
X100205440Y-114324776D01*
X100212667Y-114348601D01*
X100224403Y-114370557D01*
X100240197Y-114389803D01*
X100259443Y-114405597D01*
X100281399Y-114417333D01*
X100305224Y-114424560D01*
X100330000Y-114427000D01*
X114173000Y-114427000D01*
X114173000Y-133223000D01*
X111760000Y-133223000D01*
X111735224Y-133225440D01*
X111711399Y-133232667D01*
X111689443Y-133244403D01*
X111670197Y-133260197D01*
X111654403Y-133279443D01*
X111642667Y-133301399D01*
X111635440Y-133325224D01*
X111633000Y-133350000D01*
X111633000Y-163703000D01*
X64897000Y-163703000D01*
X64897000Y-159760475D01*
X65945000Y-159760475D01*
X65945000Y-160279525D01*
X66046261Y-160788601D01*
X66244893Y-161268141D01*
X66533262Y-161699715D01*
X66900285Y-162066738D01*
X67331859Y-162355107D01*
X67811399Y-162553739D01*
X68320475Y-162655000D01*
X68839525Y-162655000D01*
X69348601Y-162553739D01*
X69828141Y-162355107D01*
X70259715Y-162066738D01*
X70626738Y-161699715D01*
X70915107Y-161268141D01*
X71113739Y-160788601D01*
X71215000Y-160279525D01*
X71215000Y-159760475D01*
X71113739Y-159251399D01*
X70915107Y-158771859D01*
X70626738Y-158340285D01*
X70259715Y-157973262D01*
X70104691Y-157869678D01*
X105285000Y-157869678D01*
X105285000Y-159630321D01*
X105308657Y-159870515D01*
X105402148Y-160178714D01*
X105553969Y-160462751D01*
X105758286Y-160711714D01*
X106007248Y-160916031D01*
X106291285Y-161067852D01*
X106599484Y-161161343D01*
X106920000Y-161192911D01*
X107240515Y-161161343D01*
X107548714Y-161067852D01*
X107832751Y-160916031D01*
X108081714Y-160711714D01*
X108286031Y-160462752D01*
X108437852Y-160178715D01*
X108531343Y-159870516D01*
X108555000Y-159630322D01*
X108555000Y-157869678D01*
X108531343Y-157629484D01*
X108437852Y-157321285D01*
X108286031Y-157037248D01*
X108081714Y-156788286D01*
X107832752Y-156583969D01*
X107548715Y-156432148D01*
X107240516Y-156338657D01*
X106920000Y-156307089D01*
X106599485Y-156338657D01*
X106291286Y-156432148D01*
X106007249Y-156583969D01*
X105758287Y-156788286D01*
X105553970Y-157037248D01*
X105402149Y-157321285D01*
X105308658Y-157629484D01*
X105285000Y-157869678D01*
X70104691Y-157869678D01*
X69828141Y-157684893D01*
X69348601Y-157486261D01*
X68839525Y-157385000D01*
X68320475Y-157385000D01*
X67811399Y-157486261D01*
X67331859Y-157684893D01*
X66900285Y-157973262D01*
X66533262Y-158340285D01*
X66244893Y-158771859D01*
X66046261Y-159251399D01*
X65945000Y-159760475D01*
X64897000Y-159760475D01*
X64897000Y-133188967D01*
X80995000Y-133188967D01*
X80995000Y-133511033D01*
X81057832Y-133826912D01*
X81181082Y-134124463D01*
X81360013Y-134392252D01*
X81587748Y-134619987D01*
X81855537Y-134798918D01*
X82153088Y-134922168D01*
X82468967Y-134985000D01*
X82791033Y-134985000D01*
X83106912Y-134922168D01*
X83404463Y-134798918D01*
X83672252Y-134619987D01*
X83899987Y-134392252D01*
X84078918Y-134124463D01*
X84202168Y-133826912D01*
X84265000Y-133511033D01*
X84265000Y-133188967D01*
X84202168Y-132873088D01*
X84078918Y-132575537D01*
X83928219Y-132350000D01*
X85991928Y-132350000D01*
X85991928Y-134350000D01*
X86004188Y-134474482D01*
X86040498Y-134594180D01*
X86099463Y-134704494D01*
X86178815Y-134801185D01*
X86275506Y-134880537D01*
X86385820Y-134939502D01*
X86505518Y-134975812D01*
X86630000Y-134988072D01*
X88630000Y-134988072D01*
X88754482Y-134975812D01*
X88874180Y-134939502D01*
X88984494Y-134880537D01*
X89081185Y-134801185D01*
X89160537Y-134704494D01*
X89219502Y-134594180D01*
X89255812Y-134474482D01*
X89268072Y-134350000D01*
X89268072Y-132350000D01*
X89255812Y-132225518D01*
X89219502Y-132105820D01*
X89160537Y-131995506D01*
X89081185Y-131898815D01*
X88984494Y-131819463D01*
X88874180Y-131760498D01*
X88754482Y-131724188D01*
X88630000Y-131711928D01*
X86630000Y-131711928D01*
X86505518Y-131724188D01*
X86385820Y-131760498D01*
X86275506Y-131819463D01*
X86178815Y-131898815D01*
X86099463Y-131995506D01*
X86040498Y-132105820D01*
X86004188Y-132225518D01*
X85991928Y-132350000D01*
X83928219Y-132350000D01*
X83899987Y-132307748D01*
X83672252Y-132080013D01*
X83404463Y-131901082D01*
X83106912Y-131777832D01*
X82791033Y-131715000D01*
X82468967Y-131715000D01*
X82153088Y-131777832D01*
X81855537Y-131901082D01*
X81587748Y-132080013D01*
X81360013Y-132307748D01*
X81181082Y-132575537D01*
X81057832Y-132873088D01*
X80995000Y-133188967D01*
X64897000Y-133188967D01*
X64897000Y-123197980D01*
X99351626Y-123197980D01*
X99471514Y-123482836D01*
X99795210Y-123643699D01*
X100144069Y-123738322D01*
X100504684Y-123763067D01*
X100863198Y-123716985D01*
X101205833Y-123601846D01*
X101428486Y-123482836D01*
X101548374Y-123197980D01*
X100450000Y-122099605D01*
X99351626Y-123197980D01*
X64897000Y-123197980D01*
X64897000Y-121974684D01*
X98606933Y-121974684D01*
X98653015Y-122333198D01*
X98768154Y-122675833D01*
X98887164Y-122898486D01*
X99172020Y-123018374D01*
X100270395Y-121920000D01*
X100629605Y-121920000D01*
X101727980Y-123018374D01*
X102012836Y-122898486D01*
X102173699Y-122574790D01*
X102268322Y-122225931D01*
X102293067Y-121865316D01*
X102246985Y-121506802D01*
X102131846Y-121164167D01*
X102012836Y-120941514D01*
X101727980Y-120821626D01*
X100629605Y-121920000D01*
X100270395Y-121920000D01*
X99172020Y-120821626D01*
X98887164Y-120941514D01*
X98726301Y-121265210D01*
X98631678Y-121614069D01*
X98606933Y-121974684D01*
X64897000Y-121974684D01*
X64897000Y-119530000D01*
X82693461Y-119530000D01*
X82739510Y-119997542D01*
X82875887Y-120447116D01*
X83097351Y-120861446D01*
X83395391Y-121224609D01*
X83758554Y-121522649D01*
X84172884Y-121744113D01*
X84622458Y-121880490D01*
X84972843Y-121915000D01*
X85207157Y-121915000D01*
X85557542Y-121880490D01*
X86007116Y-121744113D01*
X86421446Y-121522649D01*
X86784609Y-121224609D01*
X87082649Y-120861446D01*
X87199934Y-120642020D01*
X99351626Y-120642020D01*
X100450000Y-121740395D01*
X101470394Y-120720000D01*
X106111928Y-120720000D01*
X106111928Y-123120000D01*
X106124188Y-123244482D01*
X106160498Y-123364180D01*
X106219463Y-123474494D01*
X106298815Y-123571185D01*
X106395506Y-123650537D01*
X106505820Y-123709502D01*
X106625518Y-123745812D01*
X106750000Y-123758072D01*
X109150000Y-123758072D01*
X109274482Y-123745812D01*
X109394180Y-123709502D01*
X109504494Y-123650537D01*
X109601185Y-123571185D01*
X109680537Y-123474494D01*
X109739502Y-123364180D01*
X109775812Y-123244482D01*
X109788072Y-123120000D01*
X109788072Y-120720000D01*
X109775812Y-120595518D01*
X109739502Y-120475820D01*
X109680537Y-120365506D01*
X109601185Y-120268815D01*
X109504494Y-120189463D01*
X109394180Y-120130498D01*
X109274482Y-120094188D01*
X109150000Y-120081928D01*
X106750000Y-120081928D01*
X106625518Y-120094188D01*
X106505820Y-120130498D01*
X106395506Y-120189463D01*
X106298815Y-120268815D01*
X106219463Y-120365506D01*
X106160498Y-120475820D01*
X106124188Y-120595518D01*
X106111928Y-120720000D01*
X101470394Y-120720000D01*
X101548374Y-120642020D01*
X101428486Y-120357164D01*
X101104790Y-120196301D01*
X100755931Y-120101678D01*
X100395316Y-120076933D01*
X100036802Y-120123015D01*
X99694167Y-120238154D01*
X99471514Y-120357164D01*
X99351626Y-120642020D01*
X87199934Y-120642020D01*
X87304113Y-120447116D01*
X87440490Y-119997542D01*
X87486539Y-119530000D01*
X87440490Y-119062458D01*
X87304113Y-118612884D01*
X87082649Y-118198554D01*
X86784609Y-117835391D01*
X86421446Y-117537351D01*
X86007116Y-117315887D01*
X85557542Y-117179510D01*
X85207157Y-117145000D01*
X84972843Y-117145000D01*
X84622458Y-117179510D01*
X84172884Y-117315887D01*
X83758554Y-117537351D01*
X83395391Y-117835391D01*
X83097351Y-118198554D01*
X82875887Y-118612884D01*
X82739510Y-119062458D01*
X82693461Y-119530000D01*
X64897000Y-119530000D01*
X64897000Y-102870000D01*
X81007573Y-102870000D01*
X81037210Y-103170913D01*
X81124983Y-103460261D01*
X81267519Y-103726927D01*
X81459339Y-103960661D01*
X81693073Y-104152481D01*
X81959739Y-104295017D01*
X82249087Y-104382790D01*
X82474592Y-104405000D01*
X82625408Y-104405000D01*
X82850913Y-104382790D01*
X83140261Y-104295017D01*
X83406927Y-104152481D01*
X83640661Y-103960661D01*
X83827614Y-103732858D01*
X83958351Y-103907116D01*
X84182427Y-104107962D01*
X84441380Y-104261234D01*
X84725259Y-104361041D01*
X84963000Y-104240992D01*
X84963000Y-102997000D01*
X84943000Y-102997000D01*
X84943000Y-102743000D01*
X84963000Y-102743000D01*
X84963000Y-101499008D01*
X85217000Y-101499008D01*
X85217000Y-102743000D01*
X85237000Y-102743000D01*
X85237000Y-102997000D01*
X85217000Y-102997000D01*
X85217000Y-104240992D01*
X85454741Y-104361041D01*
X85738620Y-104261234D01*
X85997573Y-104107962D01*
X86132311Y-103987192D01*
X86140498Y-104014180D01*
X86199463Y-104124494D01*
X86278815Y-104221185D01*
X86375506Y-104300537D01*
X86485820Y-104359502D01*
X86605518Y-104395812D01*
X86730000Y-104408072D01*
X88530000Y-104408072D01*
X88654482Y-104395812D01*
X88774180Y-104359502D01*
X88884494Y-104300537D01*
X88981185Y-104221185D01*
X89060537Y-104124494D01*
X89119502Y-104014180D01*
X89155812Y-103894482D01*
X89168072Y-103770000D01*
X89168072Y-101970000D01*
X89155812Y-101845518D01*
X89119502Y-101725820D01*
X89060537Y-101615506D01*
X88981185Y-101518815D01*
X88884494Y-101439463D01*
X88774180Y-101380498D01*
X88654482Y-101344188D01*
X88530000Y-101331928D01*
X86730000Y-101331928D01*
X86605518Y-101344188D01*
X86485820Y-101380498D01*
X86375506Y-101439463D01*
X86278815Y-101518815D01*
X86199463Y-101615506D01*
X86140498Y-101725820D01*
X86132311Y-101752808D01*
X85997573Y-101632038D01*
X85738620Y-101478766D01*
X85454741Y-101378959D01*
X85217000Y-101499008D01*
X84963000Y-101499008D01*
X84725259Y-101378959D01*
X84441380Y-101478766D01*
X84182427Y-101632038D01*
X83958351Y-101832884D01*
X83827614Y-102007142D01*
X83640661Y-101779339D01*
X83406927Y-101587519D01*
X83140261Y-101444983D01*
X82850913Y-101357210D01*
X82625408Y-101335000D01*
X82474592Y-101335000D01*
X82249087Y-101357210D01*
X81959739Y-101444983D01*
X81693073Y-101587519D01*
X81459339Y-101779339D01*
X81267519Y-102013073D01*
X81124983Y-102279739D01*
X81037210Y-102569087D01*
X81007573Y-102870000D01*
X64897000Y-102870000D01*
X64897000Y-90340000D01*
X78271928Y-90340000D01*
X78271928Y-92540000D01*
X78284188Y-92664482D01*
X78320498Y-92784180D01*
X78379463Y-92894494D01*
X78458815Y-92991185D01*
X78555506Y-93070537D01*
X78665820Y-93129502D01*
X78785518Y-93165812D01*
X78910000Y-93178072D01*
X81110000Y-93178072D01*
X81234482Y-93165812D01*
X81354180Y-93129502D01*
X81464494Y-93070537D01*
X81561185Y-92991185D01*
X81640537Y-92894494D01*
X81699502Y-92784180D01*
X81735812Y-92664482D01*
X81748072Y-92540000D01*
X81748072Y-91836122D01*
X88480825Y-91836122D01*
X88545425Y-92049094D01*
X88695469Y-92354329D01*
X88902178Y-92624427D01*
X89157609Y-92849008D01*
X89451946Y-93019442D01*
X89773877Y-93129179D01*
X90043000Y-93011600D01*
X90043000Y-91567000D01*
X90297000Y-91567000D01*
X90297000Y-93011600D01*
X90566123Y-93129179D01*
X90888054Y-93019442D01*
X91182391Y-92849008D01*
X91437822Y-92624427D01*
X91644531Y-92354329D01*
X91794575Y-92049094D01*
X91859175Y-91836122D01*
X91741125Y-91567000D01*
X90297000Y-91567000D01*
X90043000Y-91567000D01*
X88598875Y-91567000D01*
X88480825Y-91836122D01*
X81748072Y-91836122D01*
X81748072Y-91043878D01*
X88480825Y-91043878D01*
X88598875Y-91313000D01*
X90043000Y-91313000D01*
X90043000Y-89868400D01*
X90297000Y-89868400D01*
X90297000Y-91313000D01*
X91741125Y-91313000D01*
X91859175Y-91043878D01*
X91794575Y-90830906D01*
X91644531Y-90525671D01*
X91437822Y-90255573D01*
X91182391Y-90030992D01*
X90888054Y-89860558D01*
X90566123Y-89750821D01*
X90297000Y-89868400D01*
X90043000Y-89868400D01*
X89773877Y-89750821D01*
X89451946Y-89860558D01*
X89157609Y-90030992D01*
X88902178Y-90255573D01*
X88695469Y-90525671D01*
X88545425Y-90830906D01*
X88480825Y-91043878D01*
X81748072Y-91043878D01*
X81748072Y-90340000D01*
X81735812Y-90215518D01*
X81699502Y-90095820D01*
X81640537Y-89985506D01*
X81561185Y-89888815D01*
X81464494Y-89809463D01*
X81354180Y-89750498D01*
X81234482Y-89714188D01*
X81110000Y-89701928D01*
X78910000Y-89701928D01*
X78785518Y-89714188D01*
X78665820Y-89750498D01*
X78555506Y-89809463D01*
X78458815Y-89888815D01*
X78379463Y-89985506D01*
X78320498Y-90095820D01*
X78284188Y-90215518D01*
X78271928Y-90340000D01*
X64897000Y-90340000D01*
X64897000Y-83947000D01*
X100203000Y-83947000D01*
X100203000Y-114300000D01*
M02*
