M48
; DRILL file {KiCad 5.1.4-5.1.4} date Fr 01 Nov 2019 09:43:59 CET
; FORMAT={3:3/ absolute / metric / suppress leading zeros}
; #@! TF.CreationDate,2019-11-01T09:43:59+01:00
; #@! TF.GenerationSoftware,Kicad,Pcbnew,5.1.4-5.1.4
FMAT,2
METRIC,TZ
T1C1.000
T2C1.100
T3C1.200
T4C1.350
T5C1.400
T6C2.200
T7C3.500
T8C3.500
%
G90
G05
T1
X116840Y-86360
X146130Y-133350
X151130Y-133350
X82630Y-133350
X87630Y-133350
X146050Y-118110
X148590Y-118110
X151130Y-118110
X82550Y-102870
X85090Y-102870
X87630Y-102870
X111760Y-86360
X111760Y-91440
X116840Y-91440
T2
X80010Y-91440
X90170Y-91440
X143510Y-91440
X153670Y-91440
T3
X100450Y-121920
X107950Y-121920
X120770Y-121920
X128270Y-121920
T4
X86360Y-69850
X86360Y-80010
X140970Y-69850
X140970Y-80010
T5
X106920Y-158750
X114420Y-158750
X121920Y-158750
X106920Y-109220
X114420Y-109220
X121920Y-109220
X106680Y-71120
X114180Y-71120
X121680Y-71120
T6
X81360Y-69930
X81360Y-79930
X91360Y-69930
X91360Y-79930
X135970Y-69930
X135970Y-79930
X145970Y-69930
X145970Y-79930
T7
X68580Y-69850
X68580Y-160020
X158750Y-69850
X158750Y-160020
T8
X148590Y-101450
X85090Y-119530
T0
M30
